<svg width="52" height="60" viewBox="0 0 52 60" fill="none" xmlns="http://www.w3.org/2000/svg">
<path d="M38.3834 26.5526C37.659 26.5526 36.9643 26.2638 36.4521 25.7499C35.9398 25.2359 35.6521 24.5388 35.6521 23.812C35.6521 23.0851 35.9398 22.3881 36.4521 21.8741C36.9643 21.3602 37.659 21.0714 38.3834 21.0714C39.1078 21.0714 39.8025 21.3602 40.3148 21.8741C40.827 22.3881 41.1147 23.0851 41.1147 23.812C41.1147 24.5388 40.827 25.2359 40.3148 25.7499C39.8025 26.2638 39.1078 26.5526 38.3834 26.5526ZM24.7797 31.1465C24.7797 31.8733 25.0675 32.5704 25.5797 33.0843C26.0919 33.5983 26.7867 33.887 27.5111 33.887C28.2355 33.887 28.9302 33.5983 29.4424 33.0843C29.9546 32.5704 30.2424 31.8733 30.2424 31.1465C30.2424 30.4196 29.9546 29.7225 29.4424 29.2086C28.9302 28.6946 28.2355 28.4059 27.5111 28.4059C26.7867 28.4059 26.0919 28.6946 25.5797 29.2086C25.0675 29.7225 24.7797 30.4196 24.7797 31.1465ZM38.3688 43.073C37.641 43.073 36.943 42.7829 36.4284 42.2665C35.9138 41.7502 35.6247 41.0498 35.6247 40.3196C35.6247 39.5893 35.9138 38.889 36.4284 38.3726C36.943 37.8563 37.641 37.5662 38.3688 37.5662C39.0966 37.5662 39.7946 37.8563 40.3092 38.3726C40.8238 38.889 41.1129 39.5893 41.1129 40.3196C41.1129 41.0498 40.8238 41.7502 40.3092 42.2665C39.7946 42.7829 39.0966 43.073 38.3688 43.073ZM51.1723 8.05232C51.1723 4.0377 47.902 0.639026 43.7547 0.895668C27.5056 1.89657 13.2551 7.38505 2.09229 18.0797C-1.0757 21.1117 -0.450871 26.0649 2.83404 28.5947C7.94579 32.5542 13.092 36.4688 18.272 40.3379V46.7173C18.272 49.3461 20.3 52.2168 23.753 52.2168C24.4143 52.2168 25.0245 52.1068 25.5726 51.9235V52.2278C25.5726 54.8419 27.6042 57.6943 31.0645 57.6943C33.8196 57.6943 35.6356 55.8721 36.2751 53.8446C38.2774 55.3478 40.4662 56.983 42.421 58.4422C46.0385 61.1443 51.1723 58.5522 51.1723 54.0389L51.1723 8.05232ZM25.5763 46.7173C25.5763 47.6669 24.8638 48.5505 23.753 48.5505C22.6385 48.5505 21.926 47.6632 21.926 46.7173L21.926 39.4067C21.9257 39.1177 21.8574 38.8329 21.7266 38.5755C21.5958 38.3181 21.4062 38.0954 21.1733 37.9255C18.3232 35.8503 13.4707 32.151 9.17366 28.855C19.0138 19.4546 32.8075 13.8781 47.5183 13.7644L47.5183 54.0389C47.5173 54.3781 47.4225 54.7104 47.2445 54.9988C47.0665 55.2871 46.8122 55.5203 46.51 55.6723C46.2078 55.8243 45.8695 55.8892 45.5327 55.8597C45.1959 55.8303 44.8739 55.7076 44.6025 55.5055C41.7304 53.357 38.3432 50.8272 35.8001 48.9134C35.5286 48.7092 35.2059 48.5848 34.8679 48.5542C34.53 48.5236 34.1903 48.5881 33.8868 48.7403C33.5834 48.8926 33.3281 49.1266 33.1498 49.4162C32.9714 49.7058 32.8769 50.0395 32.8769 50.38V52.2278C32.8769 53.1297 32.1826 54.0316 31.0645 54.0316C30.8251 54.0375 30.587 53.9951 30.3642 53.907C30.1414 53.8189 29.9385 53.6869 29.7674 53.5187C29.5964 53.3505 29.4607 53.1496 29.3685 52.9279C29.2762 52.7061 29.2292 52.4681 29.2302 52.2278V46.7173C29.2302 46.2311 29.0378 45.7649 28.6951 45.4211C28.3525 45.0773 27.8878 44.8841 27.4033 44.8841C26.9187 44.8841 26.454 45.0773 26.1114 45.4211C25.7688 45.7649 25.5763 46.2311 25.5763 46.7173ZM5.06295 25.691C3.36386 24.3821 3.23598 22.0503 4.61717 20.7268C15.0565 10.7287 28.441 5.51156 43.9776 4.55099C45.874 4.43367 47.5183 5.99552 47.5183 8.05232V10.0981C31.7076 10.2191 16.8177 16.2832 6.23952 26.5966L5.06295 25.691Z" fill="black"/>
</svg>
